<svg width="122" height="68" viewBox="0 0 122 68" fill="none" xmlns="http://www.w3.org/2000/svg">
<path opacity="0.76" d="M108.113 67C103.672 67 100.21 65.8519 97.7258 63.5556C95.2419 61.1852 94 58.0741 94 54.2222C94 50.2963 95.2796 47.1111 97.8387 44.6667C100.398 42.2222 103.823 41 108.113 41C112.328 41 115.677 42.2222 118.161 44.6667C120.72 47.037 122 50.1852 122 54.1111C122 57.963 120.796 61.0741 118.387 63.4444C115.979 65.8148 112.554 67 108.113 67Z" fill="#FF5757"/>
<path opacity="0.76" d="M63.672 67.2C59.6613 67.2 56.5467 66.048 54.328 63.744C52.1093 61.44 51 58.5387 51 55.04V13.056C51 9.38667 52.1093 6.35734 54.328 3.968C56.5467 1.49334 59.6613 0.256004 63.672 0.256004C67.6827 0.256004 70.7547 1.49334 72.888 3.968C75.0213 6.35734 76.088 9.30134 76.088 12.8V15.488H78.52C78.8613 10.9653 80.568 7.25333 83.64 4.352C86.712 1.45066 90.3387 0 94.52 0C98.7013 0 101.987 1.28 104.376 3.84C106.851 6.4 108.088 9.81333 108.088 14.08C108.088 18.0907 106.936 21.4187 104.632 24.064C102.328 26.7093 99.384 28.032 95.8 28.032C92.8133 28.032 90.296 27.3493 88.248 25.984C86.2853 24.5333 84.8347 22.8693 83.896 20.992C81.1653 20.6507 79.16 20.9493 77.88 21.888C76.6853 22.7413 76.088 24.4907 76.088 27.136V55.04C76.088 58.5387 75.0213 61.44 72.888 63.744C70.7547 66.048 67.6827 67.2 63.672 67.2Z" fill="#FF5757"/>
<path opacity="0.76" d="M12.8711 67C9.11641 67 6.08708 65.8907 3.78308 63.672C1.56441 61.368 0.455078 58.552 0.455078 55.224V12.856C0.455078 9.27203 1.52174 6.24269 3.65508 3.76803C5.78841 1.29336 8.86041 0.0560303 12.8711 0.0560303C16.7964 0.0560303 19.7831 1.29336 21.8311 3.76803C23.8791 6.24269 24.9031 9.35736 24.9031 13.112V19.512H27.2071C27.2071 14.648 28.0604 10.808 29.7671 7.99203C31.5591 5.17603 33.8204 3.17069 36.5511 1.97603C39.2817 0.69603 42.0124 0.0560303 44.7431 0.0560303C51.3137 0.0560303 56.1351 2.44536 59.2071 7.22403C62.2791 11.9174 63.8151 18.616 63.8151 27.32V55.224C63.8151 58.552 62.7057 61.368 60.4871 63.672C58.2684 65.8907 55.2817 67 51.5271 67C47.6871 67 44.6151 65.8907 42.3111 63.672C40.0924 61.368 38.9831 58.552 38.9831 55.224V32.568C38.9831 29.496 38.3857 27.1067 37.1911 25.4C36.0817 23.6934 34.4177 22.84 32.1991 22.84C29.6391 22.84 27.7617 23.7787 26.5671 25.656C25.4577 27.5334 24.9031 29.9227 24.9031 32.824V55.224C24.9031 58.552 23.8364 61.368 21.7031 63.672C19.5697 65.8907 16.6257 67 12.8711 67Z" fill="#0193A5"/>
</svg>
