<svg width="108" height="68" viewBox="0 0 108 68" fill="none" xmlns="http://www.w3.org/2000/svg">
<path opacity="0.9" d="M62.672 67.2C58.6613 67.2 55.5467 66.048 53.328 63.744C51.1093 61.44 50 58.5387 50 55.04V13.056C50 9.38667 51.1093 6.35734 53.328 3.968C55.5467 1.49334 58.6613 0.256004 62.672 0.256004C66.6827 0.256004 69.7547 1.49334 71.888 3.968C74.0213 6.35734 75.088 9.30134 75.088 12.8V15.488H77.52C77.8613 10.9653 79.568 7.25333 82.64 4.352C85.712 1.45066 89.3387 0 93.52 0C97.7013 0 100.987 1.28 103.376 3.84C105.851 6.4 107.088 9.81333 107.088 14.08C107.088 18.0907 105.936 21.4187 103.632 24.064C101.328 26.7093 98.384 28.032 94.8 28.032C91.8133 28.032 89.296 27.3493 87.248 25.984C85.2853 24.5333 83.8347 22.8693 82.896 20.992C80.1653 20.6507 78.16 20.9493 76.88 21.888C75.6853 22.7413 75.088 24.4907 75.088 27.136V55.04C75.088 58.5387 74.0213 61.44 71.888 63.744C69.7547 66.048 66.6827 67.2 62.672 67.2Z" fill="#FF5757"/>
<path opacity="0.91" d="M12.416 67C8.66133 67 5.632 65.8907 3.328 63.672C1.10933 61.368 0 58.552 0 55.224V12.856C0 9.27203 1.06667 6.24269 3.2 3.76803C5.33333 1.29336 8.40533 0.0560303 12.416 0.0560303C16.3413 0.0560303 19.328 1.29336 21.376 3.76803C23.424 6.24269 24.448 9.35736 24.448 13.112V19.512H26.752C26.752 14.648 27.6053 10.808 29.312 7.99203C31.104 5.17603 33.3653 3.17069 36.096 1.97603C38.8267 0.69603 41.5573 0.0560303 44.288 0.0560303C50.8587 0.0560303 55.68 2.44536 58.752 7.22403C61.824 11.9174 63.36 18.616 63.36 27.32V55.224C63.36 58.552 62.2507 61.368 60.032 63.672C57.8133 65.8907 54.8267 67 51.072 67C47.232 67 44.16 65.8907 41.856 63.672C39.6373 61.368 38.528 58.552 38.528 55.224V32.568C38.528 29.496 37.9307 27.1067 36.736 25.4C35.6267 23.6934 33.9627 22.84 31.744 22.84C29.184 22.84 27.3067 23.7787 26.112 25.656C25.0027 27.5334 24.448 29.9227 24.448 32.824V55.224C24.448 58.552 23.3813 61.368 21.248 63.672C19.1147 65.8907 16.1707 67 12.416 67Z" fill="#0193A5"/>
</svg>
